# xmcd
#
# Track frame offsets:
#	150
#	21651
#	37674
#	56163
#	69883
#	91138
#	112185
#	128847
#	152166
#	170865
#
# Disc length: 2595 seconds
# Revision: 0
# Processed by: cddbd v1.5.2PL0 Copyright (c) Steve Scherf et al.
# Submitted via: dBpowerAMP V12.0
#
DISCID=860a210a
DTITLE=Ghosts Of Memphis - The Devil And The Details
DYEAR=2012
DGENRE=Country
TTITLE0=Least Favorite Lie
TTITLE1=J'Entends Ton Coeur
TTITLE2=Mary Rose
TTITLE3=What Do You Do
TTITLE4=Save Me
TTITLE5=I Can't Fix You
TTITLE6=Whispers And Wishes
TTITLE7=Water
TTITLE8=Rails
TTITLE9=Hold On
EXTD=
EXTT0=
EXTT1=
EXTT2=
EXTT3=
EXTT4=
EXTT5=
EXTT6=
EXTT7=
EXTT8=
EXTT9=
PLAYORDER=
